<?xml version="1.0" standalone="no"?>
<!DOCTYPE svg PUBLIC "-//W3C//DTD SVG 20010904//EN"
 "http://www.w3.org/TR/2001/REC-SVG-20010904/DTD/svg10.dtd">
<svg version="1.0" xmlns="http://www.w3.org/2000/svg"
 width="120.000000pt" height="120.000000pt" viewBox="0 0 120.000000 120.000000"
 preserveAspectRatio="xMidYMid meet">
<metadata>
Created by potrace 1.11, written by Peter Selinger 2001-2013
</metadata>
<g transform="translate(0.000000,120.000000) scale(0.100000,-0.100000)"
fill="#000000" stroke="none">
<path d="M349 1133 c-2 -81 -2 -72 6 -105 5 -20 2 -31 -14 -45 -12 -9 -21 -24
-21 -32 0 -8 -12 -30 -27 -50 -40 -52 -50 -169 -20 -228 9 -18 17 -48 17 -67
0 -28 26 -97 46 -124 1 -2 19 -5 39 -7 34 -3 38 -1 52 32 12 31 13 46 2 100
-7 36 -18 63 -25 63 -19 0 -21 18 -14 120 4 52 8 91 9 85 3 -19 21 20 21 47 0
15 6 31 13 35 7 4 18 20 25 36 10 24 9 29 -9 40 -27 16 -57 74 -65 126 -4 25
-12 41 -20 41 -10 0 -14 -18 -15 -67z m-5 -475 c17 -23 22 -58 9 -58 -22 1
-51 39 -46 59 7 27 18 27 37 -1z"/>
<path d="M681 1158 c-10 -24 -24 -60 -32 -82 -8 -21 -26 -47 -42 -58 -15 -11
-27 -25 -26 -31 1 -7 0 -23 -4 -37 -11 -48 -17 -121 -9 -116 5 3 8 -9 8 -27
-1 -30 -41 -99 -91 -155 -11 -13 -23 -39 -26 -57 -6 -36 13 -95 31 -95 6 0 15
-11 20 -25 17 -46 71 -36 133 24 42 40 47 50 42 77 -4 24 0 35 20 54 23 22 26
22 44 6 17 -16 19 -15 35 9 13 20 16 46 14 130 -2 70 -6 105 -14 105 -7 0 -9
15 -4 48 5 26 6 51 3 55 -7 12 -30 -11 -37 -37 -9 -38 -33 -39 -66 -3 -16 17
-30 39 -30 47 0 28 40 162 53 174 17 17 46 16 40 -1 -4 -9 0 -11 11 -7 12 5
15 2 10 -10 -3 -9 -1 -16 5 -16 18 0 24 26 11 49 -8 15 -20 21 -46 21 -31 0
-36 -4 -53 -42z m-116 -438 c-3 -5 -12 -10 -18 -10 -7 0 -6 4 3 10 19 12 23
12 15 0z m-38 -115 c-15 -16 -19 -13 -11 9 3 9 10 13 15 10 5 -3 3 -11 -4 -19z"/>
<path d="M747 1083 c-4 -3 -7 -13 -7 -22 1 -13 3 -13 11 2 11 19 8 33 -4 20z"/>
<path d="M740 1013 c0 -21 3 -24 9 -14 5 8 7 20 4 28 -8 21 -13 15 -13 -14z"/>
<path d="M867 815 c-4 -8 -1 -17 5 -21 7 -4 6 -9 -2 -14 -9 -6 -8 -14 6 -35
14 -21 15 -28 4 -35 -7 -4 -9 -13 -5 -19 4 -7 1 -18 -5 -26 -10 -12 -10 -15 1
-15 10 -1 9 -4 -3 -14 -21 -15 -23 -32 -5 -39 7 -3 5 -8 -8 -13 -26 -10 -44
-35 -38 -51 3 -8 -2 -13 -13 -13 -9 0 -14 -3 -11 -6 4 -4 -3 -15 -15 -26 -15
-12 -18 -22 -11 -29 7 -7 26 -2 59 15 27 14 53 21 57 17 10 -10 -2 -61 -14
-61 -5 0 -9 -7 -9 -15 0 -9 -7 -18 -15 -21 -8 -4 -15 -15 -15 -26 0 -16 5 -19
25 -16 34 7 33 -17 -5 -89 -34 -64 -41 -143 -15 -180 l15 -22 33 30 c28 27 37
30 74 25 29 -4 45 -1 53 10 7 8 11 16 9 17 -2 1 -21 10 -41 20 -45 20 -57 54
-33 91 9 14 22 44 29 66 15 52 29 52 39 1 15 -75 48 -40 54 57 2 37 8 95 14
129 11 61 10 63 -20 110 -17 26 -39 64 -50 83 -20 37 -113 130 -130 130 -5 0
-11 -7 -14 -15z"/>
<path d="M457 313 c-9 -8 -13 -9 -56 -11 -30 -2 -18 -18 20 -27 17 -4 30 -1
38 9 14 16 11 43 -2 29z"/>
<path d="M546 252 c-3 -5 -17 -7 -31 -4 -26 5 -29 0 -25 -50 1 -15 -11 -48
-25 -73 l-27 -45 25 0 c14 0 29 -4 32 -10 3 -5 18 -10 32 -10 15 0 34 -6 42
-14 9 -8 28 -17 42 -21 26 -6 27 -5 39 59 7 36 9 86 6 110 -6 37 -11 45 -34
50 -15 3 -37 8 -48 12 -12 3 -24 1 -28 -4z"/>
<path d="M760 10 c0 -5 5 -10 11 -10 5 0 7 5 4 10 -3 6 -8 10 -11 10 -2 0 -4
-4 -4 -10z"/>
</g>
</svg>
