<?xml version="1.0" encoding="UTF-8" standalone="no"?>
<!DOCTYPE svg PUBLIC "-//W3C//DTD SVG 1.1//EN"
 "http://www.w3.org/Graphics/SVG/1.1/DTD/svg11.dtd">
<!-- Generated by graphviz version 2.40.1 (20161225.0304)
 -->
<!-- Title: %3 Pages: 1 -->
<svg width="542pt" height="584pt"
 viewBox="0.00 0.00 541.73 584.00" xmlns="http://www.w3.org/2000/svg" xmlns:xlink="http://www.w3.org/1999/xlink">
<g id="graph0" class="graph" transform="scale(1 1) rotate(0) translate(4 580)">
<title>%3</title>
<polygon fill="#ffffff" stroke="transparent" points="-4,4 -4,-580 537.7265,-580 537.7265,4 -4,4"/>
<!-- name -->
<g id="node1" class="node">
<title>name</title>
<polygon fill="#000080" stroke="#000000" points="114.3122,-225.2067 114.3122,-242.7933 81.9734,-255.2289 36.2394,-255.2289 3.9006,-242.7933 3.9006,-225.2067 36.2394,-212.7711 81.9734,-212.7711 114.3122,-225.2067"/>
<polygon fill="none" stroke="#000000" points="118.3194,-222.4426 118.3194,-245.5574 82.7151,-259.2487 35.4977,-259.2487 -.1066,-245.5574 -.1066,-222.4426 35.4977,-208.7513 82.7151,-208.7513 118.3194,-222.4426"/>
<text text-anchor="middle" x="59.1064" y="-232.6" font-family="Times,serif" font-size="14.00" fill="#ffffff">猎头专家</text>
</g>
<!-- product -->
<g id="node2" class="node">
<title>product</title>
<polygon fill="#ffd700" stroke="#000000" points="227.9697,-495 155.9697,-495 155.9697,-491 151.9697,-491 151.9697,-487 155.9697,-487 155.9697,-467 151.9697,-467 151.9697,-463 155.9697,-463 155.9697,-459 227.9697,-459 227.9697,-495"/>
<polyline fill="none" stroke="#000000" points="155.9697,-491 159.9697,-491 159.9697,-487 155.9697,-487 "/>
<polyline fill="none" stroke="#000000" points="155.9697,-467 159.9697,-467 159.9697,-463 155.9697,-463 "/>
<text text-anchor="middle" x="191.9697" y="-475.6" font-family="Times,serif" font-size="14.00" fill="#000000">产品立项</text>
</g>
<!-- name&#45;&#45;product -->
<g id="edge1" class="edge">
<title>name&#45;&#45;product</title>
<path fill="none" stroke="#000000" d="M73.074,-259.546C100.0572,-308.8969 158.7458,-416.2353 182.0974,-458.9441"/>
</g>
<!-- module -->
<g id="node3" class="node">
<title>module</title>
<polygon fill="#ffd700" stroke="#000000" points="227.9697,-306 155.9697,-306 155.9697,-302 151.9697,-302 151.9697,-298 155.9697,-298 155.9697,-278 151.9697,-278 151.9697,-274 155.9697,-274 155.9697,-270 227.9697,-270 227.9697,-306"/>
<polyline fill="none" stroke="#000000" points="155.9697,-302 159.9697,-302 159.9697,-298 155.9697,-298 "/>
<polyline fill="none" stroke="#000000" points="155.9697,-278 159.9697,-278 159.9697,-274 155.9697,-274 "/>
<text text-anchor="middle" x="191.9697" y="-286.6" font-family="Times,serif" font-size="14.00" fill="#000000">模块实现</text>
</g>
<!-- name&#45;&#45;module -->
<g id="edge3" class="edge">
<title>name&#45;&#45;module</title>
<path fill="none" stroke="#000000" d="M102.6108,-251.6816C119.866,-258.6947 139.4735,-266.6638 155.9164,-273.3468"/>
</g>
<!-- ccc -->
<g id="node4" class="node">
<title>ccc</title>
<polygon fill="#ffd700" stroke="#000000" points="229.4849,-198 154.4544,-198 154.4544,-194 150.4544,-194 150.4544,-190 154.4544,-190 154.4544,-170 150.4544,-170 150.4544,-166 154.4544,-166 154.4544,-162 229.4849,-162 229.4849,-198"/>
<polyline fill="none" stroke="#000000" points="154.4544,-194 158.4544,-194 158.4544,-190 154.4544,-190 "/>
<polyline fill="none" stroke="#000000" points="154.4544,-170 158.4544,-170 158.4544,-166 154.4544,-166 "/>
<text text-anchor="middle" x="191.9697" y="-178.6" font-family="Times,serif" font-size="14.00" fill="#000000">CCC 踩坑</text>
</g>
<!-- name&#45;&#45;ccc -->
<g id="edge2" class="edge">
<title>name&#45;&#45;ccc</title>
<path fill="none" stroke="#000000" d="M102.6108,-216.3184C119.2606,-209.5514 138.1004,-201.8942 154.1741,-195.3614"/>
</g>
<!-- robot -->
<g id="node5" class="node">
<title>robot</title>
<polygon fill="#ffd700" stroke="#000000" points="220.9697,-90 162.9697,-90 162.9697,-86 158.9697,-86 158.9697,-82 162.9697,-82 162.9697,-62 158.9697,-62 158.9697,-58 162.9697,-58 162.9697,-54 220.9697,-54 220.9697,-90"/>
<polyline fill="none" stroke="#000000" points="162.9697,-86 166.9697,-86 166.9697,-82 162.9697,-82 "/>
<polyline fill="none" stroke="#000000" points="162.9697,-62 166.9697,-62 166.9697,-58 162.9697,-58 "/>
<text text-anchor="middle" x="191.9697" y="-70.6" font-family="Times,serif" font-size="14.00" fill="#000000">机器人</text>
</g>
<!-- name&#45;&#45;robot -->
<g id="edge4" class="edge">
<title>name&#45;&#45;robot</title>
<path fill="none" stroke="#000000" d="M79.8663,-208.6875C106.8704,-175.7615 153.3891,-119.0413 177.1153,-90.1119"/>
</g>
<!-- 为什么要做《猎头专家》 -->
<g id="node6" class="node">
<title>为什么要做《猎头专家》</title>
<polygon fill="#00bfff" stroke="#000000" points="484.7265,-576 314.7265,-576 314.7265,-540 484.7265,-540 484.7265,-576"/>
<text text-anchor="middle" x="399.7265" y="-556.6" font-family="Times,serif" font-size="14.00" fill="#000000">为什么要做《猎头专家》</text>
</g>
<!-- product&#45;&#45;为什么要做《猎头专家》 -->
<g id="edge5" class="edge">
<title>product&#45;&#45;为什么要做《猎头专家》</title>
<path fill="none" stroke="#000000" d="M211.7631,-495.209C225.821,-507.1606 245.6884,-522.1619 265.7265,-531 280.9257,-537.7039 297.8318,-542.7603 314.3749,-546.569"/>
</g>
<!-- 技术选型 -->
<g id="node7" class="node">
<title>技术选型</title>
<polygon fill="#00bfff" stroke="#000000" points="435.7265,-522 363.7265,-522 363.7265,-486 435.7265,-486 435.7265,-522"/>
<text text-anchor="middle" x="399.7265" y="-502.6" font-family="Times,serif" font-size="14.00" fill="#000000">技术选型</text>
</g>
<!-- product&#45;&#45;技术选型 -->
<g id="edge6" class="edge">
<title>product&#45;&#45;技术选型</title>
<path fill="none" stroke="#000000" d="M228.1581,-481.703C266.1743,-486.6436 325.6138,-494.3683 363.6048,-499.3056"/>
</g>
<!-- 微信小游戏引擎的性能问题 -->
<g id="node8" class="node">
<title>微信小游戏引擎的性能问题</title>
<polygon fill="#00bfff" stroke="#000000" points="491.7265,-468 307.7265,-468 307.7265,-432 491.7265,-432 491.7265,-468"/>
<text text-anchor="middle" x="399.7265" y="-448.6" font-family="Times,serif" font-size="14.00" fill="#000000">微信小游戏引擎的性能问题</text>
</g>
<!-- product&#45;&#45;微信小游戏引擎的性能问题 -->
<g id="edge7" class="edge">
<title>product&#45;&#45;微信小游戏引擎的性能问题</title>
<path fill="none" stroke="#000000" d="M228.1581,-472.297C250.247,-469.4263 279.5686,-465.6157 307.713,-461.958"/>
</g>
<!-- 地形和背景实现 -->
<g id="node9" class="node">
<title>地形和背景实现</title>
<polygon fill="#00bfff" stroke="#000000" points="456.7265,-414 342.7265,-414 342.7265,-378 456.7265,-378 456.7265,-414"/>
<text text-anchor="middle" x="399.7265" y="-394.6" font-family="Times,serif" font-size="14.00" fill="#000000">地形和背景实现</text>
</g>
<!-- module&#45;&#45;地形和背景实现 -->
<g id="edge8" class="edge">
<title>module&#45;&#45;地形和背景实现</title>
<path fill="none" stroke="#000000" d="M203.4203,-306.252C216.2276,-325.058 238.7542,-353.7175 265.7265,-369 288.9549,-382.1612 317.6457,-388.9692 342.512,-392.4661"/>
</g>
<!-- 武器系统设计 -->
<g id="node10" class="node">
<title>武器系统设计</title>
<polygon fill="#ffffff" stroke="#000000" points="449.7265,-360 349.7265,-360 349.7265,-324 449.7265,-324 449.7265,-360"/>
<text text-anchor="middle" x="399.7265" y="-340.6" font-family="Times,serif" font-size="14.00" fill="#000000">武器系统设计</text>
</g>
<!-- module&#45;&#45;武器系统设计 -->
<g id="edge9" class="edge">
<title>module&#45;&#45;武器系统设计</title>
<path fill="none" stroke="#000000" d="M227.9996,-302.4329C239.8871,-306.8592 253.2586,-311.4839 265.7265,-315 293.1352,-322.7296 324.2916,-329.1453 349.6598,-333.7805"/>
</g>
<!-- 我们需要布娃娃 -->
<g id="node11" class="node">
<title>我们需要布娃娃</title>
<polygon fill="#ffffff" stroke="#000000" points="456.7265,-306 342.7265,-306 342.7265,-270 456.7265,-270 456.7265,-306"/>
<text text-anchor="middle" x="399.7265" y="-286.6" font-family="Times,serif" font-size="14.00" fill="#000000">我们需要布娃娃</text>
</g>
<!-- module&#45;&#45;我们需要布娃娃 -->
<g id="edge10" class="edge">
<title>module&#45;&#45;我们需要布娃娃</title>
<path fill="none" stroke="#000000" d="M228.1581,-288C259.6639,-288 305.8836,-288 342.4147,-288"/>
</g>
<!-- 角色是有情感的，如何用动作细节表现？ -->
<g id="node12" class="node">
<title>角色是有情感的，如何用动作细节表现？</title>
<polygon fill="#ffffff" stroke="#000000" points="533.7265,-252 265.7265,-252 265.7265,-216 533.7265,-216 533.7265,-252"/>
<text text-anchor="middle" x="399.7265" y="-232.6" font-family="Times,serif" font-size="14.00" fill="#000000">角色是有情感的，如何用动作细节表现？</text>
</g>
<!-- module&#45;&#45;角色是有情感的，如何用动作细节表现？ -->
<g id="edge11" class="edge">
<title>module&#45;&#45;角色是有情感的，如何用动作细节表现？</title>
<path fill="none" stroke="#000000" d="M227.9996,-273.5671C239.8871,-269.1408 253.2586,-264.5161 265.7265,-261 277.1468,-257.7793 289.2177,-254.7868 301.2495,-252.0561"/>
</g>
<!-- 动态资源加载与释放技巧 -->
<g id="node15" class="node">
<title>动态资源加载与释放技巧</title>
<polygon fill="#00bfff" stroke="#000000" points="484.7265,-198 314.7265,-198 314.7265,-162 484.7265,-162 484.7265,-198"/>
<text text-anchor="middle" x="399.7265" y="-178.6" font-family="Times,serif" font-size="14.00" fill="#000000">动态资源加载与释放技巧</text>
</g>
<!-- ccc&#45;&#45;动态资源加载与释放技巧 -->
<g id="edge14" class="edge">
<title>ccc&#45;&#45;动态资源加载与释放技巧</title>
<path fill="none" stroke="#000000" d="M229.5929,-180C253.3303,-180 284.9897,-180 314.5576,-180"/>
</g>
<!-- H5 横竖屏切换后，物理坐标系出错了 -->
<g id="node16" class="node">
<title>H5 横竖屏切换后，物理坐标系出错了</title>
<polygon fill="#ffffff" stroke="#000000" points="522.8372,-144 276.6158,-144 276.6158,-108 522.8372,-108 522.8372,-144"/>
<text text-anchor="middle" x="399.7265" y="-124.6" font-family="Times,serif" font-size="14.00" fill="#000000">H5 横竖屏切换后，物理坐标系出错了</text>
</g>
<!-- ccc&#45;&#45;H5 横竖屏切换后，物理坐标系出错了 -->
<g id="edge15" class="edge">
<title>ccc&#45;&#45;H5 横竖屏切换后，物理坐标系出错了</title>
<path fill="none" stroke="#000000" d="M229.5089,-165.007C241.0115,-160.7533 253.7836,-156.3681 265.7265,-153 277.1468,-149.7793 289.2177,-146.7868 301.2495,-144.0561"/>
</g>
<!-- 让机器人活在物理世界中 -->
<g id="node13" class="node">
<title>让机器人活在物理世界中</title>
<polygon fill="#ffffff" stroke="#000000" points="484.7265,-90 314.7265,-90 314.7265,-54 484.7265,-54 484.7265,-90"/>
<text text-anchor="middle" x="399.7265" y="-70.6" font-family="Times,serif" font-size="14.00" fill="#000000">让机器人活在物理世界中</text>
</g>
<!-- robot&#45;&#45;让机器人活在物理世界中 -->
<g id="edge12" class="edge">
<title>robot&#45;&#45;让机器人活在物理世界中</title>
<path fill="none" stroke="#000000" d="M221.2955,-72C245.5674,-72 281.3167,-72 314.4545,-72"/>
</g>
<!-- 让机器人学会瞄准 -->
<g id="node14" class="node">
<title>让机器人学会瞄准</title>
<polygon fill="#ffffff" stroke="#000000" points="463.7265,-36 335.7265,-36 335.7265,0 463.7265,0 463.7265,-36"/>
<text text-anchor="middle" x="399.7265" y="-16.6" font-family="Times,serif" font-size="14.00" fill="#000000">让机器人学会瞄准</text>
</g>
<!-- robot&#45;&#45;让机器人学会瞄准 -->
<g id="edge13" class="edge">
<title>robot&#45;&#45;让机器人学会瞄准</title>
<path fill="none" stroke="#000000" d="M221.0644,-60.1886C234.5024,-55.035 250.765,-49.2193 265.7265,-45 288.2244,-38.6553 313.2475,-33.1959 335.5218,-28.8797"/>
</g>
</g>
</svg>
